# xmcd CD database file
#
# Track frame offsets:
#	150
#	23651
#	45634
#	77364
#	97338
#	116106
#	136438
#	156480
#	176670
#	195609
#	217947
#	240623
#	253888
#
# Disc length: 3473 seconds
#
# Revision: 0
# Processed by: cddbd v1.5.2PL0 Copyright (c) Steve Scherf et al.
# Submitted via: CDex 1.51
#
DISCID=b50d8f0d
DTITLE=Jenny Evans - Lunar Tunes
DYEAR=2008
DGENRE=Jazz
TTITLE0=On the Moon
TTITLE1=Sister Moon
TTITLE2=Moonlight Serenade
TTITLE3=The Moon and Stars
TTITLE4=Moonlight in Vermont
TTITLE5=Hymn to Selene 
TTITLE6=Silly Boy
TTITLE7='Tis Full Moon
TTITLE8=Old Devil Moon
TTITLE9=Moonlight on the Ganges
TTITLE10=Song to the Moon 
TTITLE11=Moon River
TTITLE12=It's Only a Paper Moon
EXTD=YEAR: 2008
EXTT0=
EXTT1=
EXTT2=
EXTT3=
EXTT4=
EXTT5=
EXTT6=
EXTT7=
EXTT8=
EXTT9=
EXTT10=
EXTT11=
EXTT12=
PLAYORDER=
